<svg xmlns="http://www.w3.org/2000/svg" width="1024" height="1024" viewBox="0 0 1024 1024">
  <defs>
    <linearGradient id="outlineGradient" x1="220" y1="690" x2="820" y2="270" gradientUnits="userSpaceOnUse">
      <stop offset="0" stop-color="#ff4d43" />
      <stop offset="0.52" stop-color="#ff6b3d" />
      <stop offset="1" stop-color="#ffb14d" />
    </linearGradient>
    <linearGradient id="ringGradient" x1="250" y1="770" x2="790" y2="250" gradientUnits="userSpaceOnUse">
      <stop offset="0" stop-color="#ff4136" />
      <stop offset="1" stop-color="#ff8b42" />
    </linearGradient>
    <radialGradient id="coreGlow" cx="50%" cy="50%" r="50%">
      <stop offset="0" stop-color="#40130d" stop-opacity="0.8" />
      <stop offset="0.55" stop-color="#1c0c0a" stop-opacity="0.36" />
      <stop offset="1" stop-color="#050505" stop-opacity="0" />
    </radialGradient>
    <filter id="softGlow" x="0" y="0" width="1024" height="1024" filterUnits="userSpaceOnUse">
      <feGaussianBlur stdDeviation="14" />
    </filter>
    <filter id="strongGlow" x="0" y="0" width="1024" height="1024" filterUnits="userSpaceOnUse">
      <feGaussianBlur stdDeviation="28" />
    </filter>
  </defs>

  <rect width="1024" height="1024" fill="#050505" />
  <rect width="1024" height="1024" fill="url(#coreGlow)" />

  <g filter="url(#softGlow)">
    <circle cx="512" cy="518" r="150" fill="none" stroke="url(#ringGradient)" stroke-width="8" opacity="0.88" />
<circle cx="512" cy="518" r="220" fill="none" stroke="url(#ringGradient)" stroke-width="5" opacity="0.34" />
<circle cx="512" cy="518" r="290" fill="none" stroke="url(#ringGradient)" stroke-width="5" opacity="0.34" />
<circle cx="512" cy="518" r="360" fill="none" stroke="url(#ringGradient)" stroke-width="5" opacity="0.34" />
  </g>

  <g opacity="0.96">
    <circle cx="512" cy="518" r="150" fill="none" stroke="url(#ringGradient)" stroke-width="8" opacity="0.88" />
<circle cx="512" cy="518" r="220" fill="none" stroke="url(#ringGradient)" stroke-width="5" opacity="0.34" />
<circle cx="512" cy="518" r="290" fill="none" stroke="url(#ringGradient)" stroke-width="5" opacity="0.34" />
<circle cx="512" cy="518" r="360" fill="none" stroke="url(#ringGradient)" stroke-width="5" opacity="0.34" />
  </g>

  <circle cx="512" cy="518" r="98" fill="#080808" />
  <circle cx="512" cy="518" r="106" fill="none" stroke="url(#ringGradient)" stroke-width="6" opacity="0.95" />

  <g fill="none" stroke-linecap="round" stroke-linejoin="round">
    <path d="M 645.77 279.70 L 651.32 291.80 L 661.21 285.99 L 673.71 298.53 L 689.32 359.76 L 727.24 381.84 L 740.03 411.92 L 746.18 408.53 L 756.20 412.84 L 758.85 429.17 L 788.99 456.99 L 793.32 469.38 L 792.66 487.70 L 800.00 500.80 L 789.55 555.21 L 782.75 569.22 L 771.33 576.80 L 750.05 617.34 L 744.95 644.36 L 718.86 650.27 L 688.25 669.18 L 666.04 659.65 L 668.43 651.62 L 646.51 665.69 L 600.72 653.51 L 590.76 644.01 L 584.32 624.53 L 561.92 616.42 L 566.98 608.94 L 563.25 597.50 L 555.73 608.17 L 542.02 611.00 L 558.36 586.03 L 557.13 574.62 L 534.97 593.03 L 529.06 605.29 L 517.03 598.95 L 517.51 590.77 L 499.74 573.82 L 502.63 570.26 L 457.21 552.98 L 377.41 564.08 L 347.72 575.54 L 339.05 589.88 L 281.02 591.20 L 252.22 607.98 L 230.64 607.37 L 206.01 594.60 L 206.35 585.77 L 216.61 580.16 L 216.23 554.78 L 206.22 521.62 L 180.00 470.08 L 186.77 476.74 L 181.57 462.44 L 193.78 472.88 L 180.84 443.39 L 192.50 402.87 L 193.66 414.61 L 200.17 404.01 L 231.98 386.63 L 295.85 370.94 L 317.20 348.04 L 318.30 333.51 L 329.08 320.41 L 335.57 333.72 L 342.13 330.64 L 336.64 323.36 L 341.48 315.89 L 348.28 319.22 L 350.15 307.50 L 370.28 286.90 L 391.55 280.54 L 411.49 296.74 L 430.93 298.29 L 427.67 289.83 L 446.29 260.79 L 476.45 254.28 L 476.18 246.41 L 464.89 241.33 L 473.09 239.09 L 518.42 256.36 L 536.82 250.32 L 543.90 257.95 L 528.64 272.94 L 521.53 298.72 L 594.20 340.54 L 604.37 335.27 L 617.11 299.45 L 614.30 278.69 L 623.92 237.77 L 629.64 232.00 L 633.99 239.54 L 645.77 279.70 Z" stroke="#ff3d33" stroke-width="22" opacity="0.24" filter="url(#strongGlow)" />
    <path d="M 674.07 696.25 L 688.96 701.57 L 718.62 697.53 L 719.71 715.82 L 714.43 721.13 L 712.84 733.53 L 707.46 729.31 L 696.76 740.05 L 684.09 738.74 L 663.59 701.95 L 663.99 694.89 L 674.07 696.25 Z" stroke="#ff3d33" stroke-width="20" opacity="0.22" filter="url(#strongGlow)" />
    <path d="M 645.77 279.70 L 651.32 291.80 L 661.21 285.99 L 673.71 298.53 L 689.32 359.76 L 727.24 381.84 L 740.03 411.92 L 746.18 408.53 L 756.20 412.84 L 758.85 429.17 L 788.99 456.99 L 793.32 469.38 L 792.66 487.70 L 800.00 500.80 L 789.55 555.21 L 782.75 569.22 L 771.33 576.80 L 750.05 617.34 L 744.95 644.36 L 718.86 650.27 L 688.25 669.18 L 666.04 659.65 L 668.43 651.62 L 646.51 665.69 L 600.72 653.51 L 590.76 644.01 L 584.32 624.53 L 561.92 616.42 L 566.98 608.94 L 563.25 597.50 L 555.73 608.17 L 542.02 611.00 L 558.36 586.03 L 557.13 574.62 L 534.97 593.03 L 529.06 605.29 L 517.03 598.95 L 517.51 590.77 L 499.74 573.82 L 502.63 570.26 L 457.21 552.98 L 377.41 564.08 L 347.72 575.54 L 339.05 589.88 L 281.02 591.20 L 252.22 607.98 L 230.64 607.37 L 206.01 594.60 L 206.35 585.77 L 216.61 580.16 L 216.23 554.78 L 206.22 521.62 L 180.00 470.08 L 186.77 476.74 L 181.57 462.44 L 193.78 472.88 L 180.84 443.39 L 192.50 402.87 L 193.66 414.61 L 200.17 404.01 L 231.98 386.63 L 295.85 370.94 L 317.20 348.04 L 318.30 333.51 L 329.08 320.41 L 335.57 333.72 L 342.13 330.64 L 336.64 323.36 L 341.48 315.89 L 348.28 319.22 L 350.15 307.50 L 370.28 286.90 L 391.55 280.54 L 411.49 296.74 L 430.93 298.29 L 427.67 289.83 L 446.29 260.79 L 476.45 254.28 L 476.18 246.41 L 464.89 241.33 L 473.09 239.09 L 518.42 256.36 L 536.82 250.32 L 543.90 257.95 L 528.64 272.94 L 521.53 298.72 L 594.20 340.54 L 604.37 335.27 L 617.11 299.45 L 614.30 278.69 L 623.92 237.77 L 629.64 232.00 L 633.99 239.54 L 645.77 279.70 Z" stroke="#ff5f3e" stroke-width="11" opacity="0.46" filter="url(#softGlow)" />
    <path d="M 674.07 696.25 L 688.96 701.57 L 718.62 697.53 L 719.71 715.82 L 714.43 721.13 L 712.84 733.53 L 707.46 729.31 L 696.76 740.05 L 684.09 738.74 L 663.59 701.95 L 663.99 694.89 L 674.07 696.25 Z" stroke="#ff5f3e" stroke-width="10" opacity="0.42" filter="url(#softGlow)" />
    <path d="M 645.77 279.70 L 651.32 291.80 L 661.21 285.99 L 673.71 298.53 L 689.32 359.76 L 727.24 381.84 L 740.03 411.92 L 746.18 408.53 L 756.20 412.84 L 758.85 429.17 L 788.99 456.99 L 793.32 469.38 L 792.66 487.70 L 800.00 500.80 L 789.55 555.21 L 782.75 569.22 L 771.33 576.80 L 750.05 617.34 L 744.95 644.36 L 718.86 650.27 L 688.25 669.18 L 666.04 659.65 L 668.43 651.62 L 646.51 665.69 L 600.72 653.51 L 590.76 644.01 L 584.32 624.53 L 561.92 616.42 L 566.98 608.94 L 563.25 597.50 L 555.73 608.17 L 542.02 611.00 L 558.36 586.03 L 557.13 574.62 L 534.97 593.03 L 529.06 605.29 L 517.03 598.95 L 517.51 590.77 L 499.74 573.82 L 502.63 570.26 L 457.21 552.98 L 377.41 564.08 L 347.72 575.54 L 339.05 589.88 L 281.02 591.20 L 252.22 607.98 L 230.64 607.37 L 206.01 594.60 L 206.35 585.77 L 216.61 580.16 L 216.23 554.78 L 206.22 521.62 L 180.00 470.08 L 186.77 476.74 L 181.57 462.44 L 193.78 472.88 L 180.84 443.39 L 192.50 402.87 L 193.66 414.61 L 200.17 404.01 L 231.98 386.63 L 295.85 370.94 L 317.20 348.04 L 318.30 333.51 L 329.08 320.41 L 335.57 333.72 L 342.13 330.64 L 336.64 323.36 L 341.48 315.89 L 348.28 319.22 L 350.15 307.50 L 370.28 286.90 L 391.55 280.54 L 411.49 296.74 L 430.93 298.29 L 427.67 289.83 L 446.29 260.79 L 476.45 254.28 L 476.18 246.41 L 464.89 241.33 L 473.09 239.09 L 518.42 256.36 L 536.82 250.32 L 543.90 257.95 L 528.64 272.94 L 521.53 298.72 L 594.20 340.54 L 604.37 335.27 L 617.11 299.45 L 614.30 278.69 L 623.92 237.77 L 629.64 232.00 L 633.99 239.54 L 645.77 279.70 Z" stroke="url(#outlineGradient)" stroke-width="7" />
    <path d="M 674.07 696.25 L 688.96 701.57 L 718.62 697.53 L 719.71 715.82 L 714.43 721.13 L 712.84 733.53 L 707.46 729.31 L 696.76 740.05 L 684.09 738.74 L 663.59 701.95 L 663.99 694.89 L 674.07 696.25 Z" stroke="url(#outlineGradient)" stroke-width="6" />
  </g>
</svg>
