<svg xmlns="http://www.w3.org/2000/svg" viewBox="0 0 840 932"><rect x="0" y="0" width="840" height="932" fill="#000000"/><text x="24" y="36" fill="#00FF8A" font-family="SFMono-Regular, Menlo, monospace" font-size="22">RediM8 Emergency Icon Pack</text><rect x="24" y="58" width="120" height="106" rx="16" fill="none" stroke="#0A3821" stroke-width="1"/><g transform="translate(66.0,82) scale(2)" fill="none" stroke="#00FF8A" stroke-width="2" stroke-linecap="round" stroke-linejoin="round"><polygon points="8.5,3.5 15.5,3.5 20.5,8.5 20.5,15.5 15.5,20.5 8.5,20.5 3.5,15.5 3.5,8.5"/><line x1="12" y1="8" x2="12" y2="16"/><line x1="8" y1="12" x2="16" y2="12"/></g><text x="90.0" y="150" fill="#77E5B1" font-family="SFMono-Regular, Menlo, monospace" font-size="10" text-anchor="middle" letter-spacing="0.8">EMERGENCY</text><rect x="156" y="58" width="120" height="106" rx="16" fill="none" stroke="#0A3821" stroke-width="1"/><g transform="translate(198.0,82) scale(2)" fill="none" stroke="#00FF8A" stroke-width="2" stroke-linecap="round" stroke-linejoin="round"><polygon points="12,4 20,19 4,19"/><line x1="12" y1="9" x2="12" y2="13.5"/><circle cx="12" cy="16.8" r="0.9"/></g><text x="222.0" y="150" fill="#77E5B1" font-family="SFMono-Regular, Menlo, monospace" font-size="10" text-anchor="middle" letter-spacing="0.8">WARNING</text><rect x="288" y="58" width="120" height="106" rx="16" fill="none" stroke="#0A3821" stroke-width="1"/><g transform="translate(330.0,82) scale(2)" fill="none" stroke="#00FF8A" stroke-width="2" stroke-linecap="round" stroke-linejoin="round"><path d="M8 15v-4a4 4 0 0 1 8 0v4"/><line x1="7" y1="15" x2="17" y2="15"/><line x1="6" y1="19" x2="18" y2="19"/><line x1="12" y1="3" x2="12" y2="5"/><line x1="5" y1="8" x2="7" y2="9.5"/><line x1="19" y1="8" x2="17" y2="9.5"/></g><text x="354.0" y="150" fill="#77E5B1" font-family="SFMono-Regular, Menlo, monospace" font-size="10" text-anchor="middle" letter-spacing="0.8">ALERT</text><rect x="420" y="58" width="120" height="106" rx="16" fill="none" stroke="#0A3821" stroke-width="1"/><g transform="translate(462.0,82) scale(2)" fill="none" stroke="#00FF8A" stroke-width="2" stroke-linecap="round" stroke-linejoin="round"><circle cx="12" cy="11.5" r="1.5"/><path d="M9 9a4 4 0 0 0 0 5"/><path d="M15 9a4 4 0 0 1 0 5"/><path d="M7 6a7 7 0 0 0 0 11"/><path d="M17 6a7 7 0 0 1 0 11"/><line x1="12" y1="13.5" x2="12" y2="18.5"/><line x1="8" y1="19" x2="16" y2="19"/></g><text x="486.0" y="150" fill="#77E5B1" font-family="SFMono-Regular, Menlo, monospace" font-size="10" text-anchor="middle" letter-spacing="0.8">BEACON</text><rect x="552" y="58" width="120" height="106" rx="16" fill="none" stroke="#0A3821" stroke-width="1"/><g transform="translate(594.0,82) scale(2)" fill="none" stroke="#00FF8A" stroke-width="2" stroke-linecap="round" stroke-linejoin="round"><rect x="7" y="7" width="10" height="13" rx="2"/><line x1="10" y1="7" x2="8" y2="3.5"/><line x1="10" y1="11" x2="14" y2="11"/><line x1="10" y1="14" x2="14" y2="14"/><circle cx="13.5" cy="17.3" r="1.5"/><line x1="9" y1="18.8" x2="9.8" y2="18.8"/></g><text x="618.0" y="150" fill="#77E5B1" font-family="SFMono-Regular, Menlo, monospace" font-size="10" text-anchor="middle" letter-spacing="0.8">RADIO</text><rect x="684" y="58" width="120" height="106" rx="16" fill="none" stroke="#0A3821" stroke-width="1"/><g transform="translate(726.0,82) scale(2)" fill="none" stroke="#00FF8A" stroke-width="2" stroke-linecap="round" stroke-linejoin="round"><line x1="5" y1="19" x2="5" y2="17"/><line x1="9" y1="19" x2="9" y2="14"/><line x1="13" y1="19" x2="13" y2="10"/><line x1="17" y1="19" x2="17" y2="6"/></g><text x="750.0" y="150" fill="#77E5B1" font-family="SFMono-Regular, Menlo, monospace" font-size="10" text-anchor="middle" letter-spacing="0.8">SIGNAL</text><rect x="24" y="176" width="120" height="106" rx="16" fill="none" stroke="#0A3821" stroke-width="1"/><g transform="translate(66.0,200) scale(2)" fill="none" stroke="#00FF8A" stroke-width="2" stroke-linecap="round" stroke-linejoin="round"><path d="M9 8V7a3 3 0 0 1 6 0v1"/><rect x="5" y="8" width="14" height="12" rx="3"/><rect x="9" y="13" width="6" height="4.5" rx="1.2"/><line x1="8" y1="11" x2="16" y2="11"/></g><text x="90.0" y="268" fill="#77E5B1" font-family="SFMono-Regular, Menlo, monospace" font-size="10" text-anchor="middle" letter-spacing="0.8">GO BAG</text><rect x="156" y="176" width="120" height="106" rx="16" fill="none" stroke="#0A3821" stroke-width="1"/><g transform="translate(198.0,200) scale(2)" fill="none" stroke="#00FF8A" stroke-width="2" stroke-linecap="round" stroke-linejoin="round"><path d="M9 8V6.5a3 3 0 0 1 6 0V8"/><rect x="4" y="8" width="16" height="11" rx="2.5"/><line x1="12" y1="10.8" x2="12" y2="16.2"/><line x1="9.3" y1="13.5" x2="14.7" y2="13.5"/></g><text x="222.0" y="268" fill="#77E5B1" font-family="SFMono-Regular, Menlo, monospace" font-size="10" text-anchor="middle" letter-spacing="0.8">FIRST AID</text><rect x="288" y="176" width="120" height="106" rx="16" fill="none" stroke="#0A3821" stroke-width="1"/><g transform="translate(330.0,200) scale(2)" fill="none" stroke="#00FF8A" stroke-width="2" stroke-linecap="round" stroke-linejoin="round"><path d="M6 7h7l3 3v8H6z"/><path d="M13 7v3h3"/><path d="M9 4h7l3 3v11H9z"/><path d="M16 4v3h3"/></g><text x="354.0" y="268" fill="#77E5B1" font-family="SFMono-Regular, Menlo, monospace" font-size="10" text-anchor="middle" letter-spacing="0.8">DOCUMENTS</text><rect x="420" y="176" width="120" height="106" rx="16" fill="none" stroke="#0A3821" stroke-width="1"/><g transform="translate(462.0,200) scale(2)" fill="none" stroke="#00FF8A" stroke-width="2" stroke-linecap="round" stroke-linejoin="round"><rect x="3.5" y="8" width="15" height="8" rx="2"/><rect x="18.5" y="10" width="2" height="4" rx="0.7"/><path d="M10 10.5l-1 2.2h2l-1 2.8 4-4.8h-2l1-2.2z"/></g><text x="486.0" y="268" fill="#77E5B1" font-family="SFMono-Regular, Menlo, monospace" font-size="10" text-anchor="middle" letter-spacing="0.8">BATTERY</text><rect x="552" y="176" width="120" height="106" rx="16" fill="none" stroke="#0A3821" stroke-width="1"/><g transform="translate(594.0,200) scale(2)" fill="none" stroke="#00FF8A" stroke-width="2" stroke-linecap="round" stroke-linejoin="round"><rect x="4" y="9" width="7" height="6" rx="2"/><path d="M11 8l4 2v4l-4 2"/><line x1="16" y1="9.5" x2="19" y2="7.5"/><line x1="16" y1="12" x2="20" y2="12"/><line x1="16" y1="14.5" x2="19" y2="16.5"/><line x1="4" y1="12" x2="2.5" y2="12"/></g><text x="618.0" y="268" fill="#77E5B1" font-family="SFMono-Regular, Menlo, monospace" font-size="10" text-anchor="middle" letter-spacing="0.8">FLASHLIGHT</text><rect x="684" y="176" width="120" height="106" rx="16" fill="none" stroke="#0A3821" stroke-width="1"/><g transform="translate(726.0,200) scale(2)" fill="none" stroke="#00FF8A" stroke-width="2" stroke-linecap="round" stroke-linejoin="round"><rect x="8" y="4" width="8" height="16" rx="2"/><line x1="11" y1="7" x2="13" y2="7"/><path d="M10.5 10.5l-1 2.3h2l-1 2.7 4-4.8h-2l1-2.2z"/><line x1="11" y1="20" x2="11" y2="22"/><line x1="13" y1="20" x2="13" y2="22"/></g><text x="750.0" y="268" fill="#77E5B1" font-family="SFMono-Regular, Menlo, monospace" font-size="10" text-anchor="middle" letter-spacing="0.8">POWER BANK</text><rect x="24" y="294" width="120" height="106" rx="16" fill="none" stroke="#0A3821" stroke-width="1"/><g transform="translate(66.0,318) scale(2)" fill="none" stroke="#00FF8A" stroke-width="2" stroke-linecap="round" stroke-linejoin="round"><path d="M12 4C9 8 7 10.5 7 14a5 5 0 0 0 10 0c0-3.5-2-6-5-10z"/><path d="M9.5 14c1 .8 4 .8 5 0"/></g><text x="90.0" y="386" fill="#77E5B1" font-family="SFMono-Regular, Menlo, monospace" font-size="10" text-anchor="middle" letter-spacing="0.8">WATER</text><rect x="156" y="294" width="120" height="106" rx="16" fill="none" stroke="#0A3821" stroke-width="1"/><g transform="translate(198.0,318) scale(2)" fill="none" stroke="#00FF8A" stroke-width="2" stroke-linecap="round" stroke-linejoin="round"><polyline points="4,11 12,5 20,11"/><path d="M6 10.5V19h12v-8.5"/><path d="M10 19v-4h4v4"/></g><text x="222.0" y="386" fill="#77E5B1" font-family="SFMono-Regular, Menlo, monospace" font-size="10" text-anchor="middle" letter-spacing="0.8">SHELTER</text><rect x="288" y="294" width="120" height="106" rx="16" fill="none" stroke="#0A3821" stroke-width="1"/><g transform="translate(330.0,318) scale(2)" fill="none" stroke="#00FF8A" stroke-width="2" stroke-linecap="round" stroke-linejoin="round"><path d="M8 5h5l3 3v11H8z"/><path d="M13 5v3h3"/><line x1="10" y1="8" x2="12" y2="8"/><line x1="10" y1="12" x2="14" y2="16"/><line x1="14" y1="12" x2="10" y2="16"/></g><text x="354.0" y="386" fill="#77E5B1" font-family="SFMono-Regular, Menlo, monospace" font-size="10" text-anchor="middle" letter-spacing="0.8">FUEL</text><rect x="420" y="294" width="120" height="106" rx="16" fill="none" stroke="#0A3821" stroke-width="1"/><g transform="translate(462.0,318) scale(2)" fill="none" stroke="#00FF8A" stroke-width="2" stroke-linecap="round" stroke-linejoin="round"><circle cx="12" cy="12" r="8"/><line x1="12" y1="8.5" x2="12" y2="15.5"/><line x1="8.5" y1="12" x2="15.5" y2="12"/></g><text x="486.0" y="386" fill="#77E5B1" font-family="SFMono-Regular, Menlo, monospace" font-size="10" text-anchor="middle" letter-spacing="0.8">MEDICAL</text><rect x="552" y="294" width="120" height="106" rx="16" fill="none" stroke="#0A3821" stroke-width="1"/><g transform="translate(594.0,318) scale(2)" fill="none" stroke="#00FF8A" stroke-width="2" stroke-linecap="round" stroke-linejoin="round"><rect x="4" y="8" width="16" height="8" rx="4"/><line x1="12" y1="8" x2="12" y2="16"/><line x1="7.2" y1="10.8" x2="10" y2="13.6"/></g><text x="618.0" y="386" fill="#77E5B1" font-family="SFMono-Regular, Menlo, monospace" font-size="10" text-anchor="middle" letter-spacing="0.8">PHARMACY</text><rect x="684" y="294" width="120" height="106" rx="16" fill="none" stroke="#0A3821" stroke-width="1"/><g transform="translate(726.0,318) scale(2)" fill="none" stroke="#00FF8A" stroke-width="2" stroke-linecap="round" stroke-linejoin="round"><path d="M7 7c0-1.1 2.2-2 5-2s5 .9 5 2v10c0 1.1-2.2 2-5 2s-5-.9-5-2z"/><path d="M7 7c0 1.1 2.2 2 5 2s5-.9 5-2"/><path d="M7 17c0 1.1 2.2 2 5 2s5-.9 5-2"/></g><text x="750.0" y="386" fill="#77E5B1" font-family="SFMono-Regular, Menlo, monospace" font-size="10" text-anchor="middle" letter-spacing="0.8">FOOD</text><rect x="24" y="412" width="120" height="106" rx="16" fill="none" stroke="#0A3821" stroke-width="1"/><g transform="translate(66.0,436) scale(2)" fill="none" stroke="#00FF8A" stroke-width="2" stroke-linecap="round" stroke-linejoin="round"><circle cx="12" cy="12" r="8"/><polygon points="12,7 15,12 12,17 9,12"/><circle cx="12" cy="12" r="1"/></g><text x="90.0" y="504" fill="#77E5B1" font-family="SFMono-Regular, Menlo, monospace" font-size="10" text-anchor="middle" letter-spacing="0.8">COMPASS</text><rect x="156" y="412" width="120" height="106" rx="16" fill="none" stroke="#0A3821" stroke-width="1"/><g transform="translate(198.0,436) scale(2)" fill="none" stroke="#00FF8A" stroke-width="2" stroke-linecap="round" stroke-linejoin="round"><path d="M12 20s6-5 6-10a6 6 0 1 0-12 0c0 5 6 10 6 10z"/><circle cx="12" cy="10" r="2"/></g><text x="222.0" y="504" fill="#77E5B1" font-family="SFMono-Regular, Menlo, monospace" font-size="10" text-anchor="middle" letter-spacing="0.8">MAP MARKER</text><rect x="288" y="412" width="120" height="106" rx="16" fill="none" stroke="#0A3821" stroke-width="1"/><g transform="translate(330.0,436) scale(2)" fill="none" stroke="#00FF8A" stroke-width="2" stroke-linecap="round" stroke-linejoin="round"><circle cx="6" cy="18" r="1.4"/><circle cx="18" cy="6" r="1.4"/><path d="M7.5 18C11.5 18 9.5 10 14 10h2.5"/><polyline points="16.5,8 18.5,6 16.5,4"/></g><text x="354.0" y="504" fill="#77E5B1" font-family="SFMono-Regular, Menlo, monospace" font-size="10" text-anchor="middle" letter-spacing="0.8">ROUTE</text><rect x="420" y="412" width="120" height="106" rx="16" fill="none" stroke="#0A3821" stroke-width="1"/><g transform="translate(462.0,436) scale(2)" fill="none" stroke="#00FF8A" stroke-width="2" stroke-linecap="round" stroke-linejoin="round"><path d="M8 20L10.5 4"/><path d="M16 20L13.5 4"/><line x1="12" y1="6" x2="12" y2="8"/><line x1="12" y1="10" x2="12" y2="12"/><line x1="12" y1="14" x2="12" y2="16"/><line x1="12" y1="18" x2="12" y2="19"/></g><text x="486.0" y="504" fill="#77E5B1" font-family="SFMono-Regular, Menlo, monospace" font-size="10" text-anchor="middle" letter-spacing="0.8">DIRT ROAD</text><rect x="552" y="412" width="120" height="106" rx="16" fill="none" stroke="#0A3821" stroke-width="1"/><g transform="translate(594.0,436) scale(2)" fill="none" stroke="#00FF8A" stroke-width="2" stroke-linecap="round" stroke-linejoin="round"><path d="M8 20l2.2-8"/><path d="M16 20l-2.2-8"/><path d="M12 4c1.5 2 3 3.2 3 5a3 3 0 0 1-6 0c0-1.8 1.1-3.2 3-5z"/><line x1="12" y1="12" x2="12" y2="18"/></g><text x="618.0" y="504" fill="#77E5B1" font-family="SFMono-Regular, Menlo, monospace" font-size="10" text-anchor="middle" letter-spacing="0.8">FIRE TRAIL</text><rect x="684" y="412" width="120" height="106" rx="16" fill="none" stroke="#0A3821" stroke-width="1"/><g transform="translate(726.0,436) scale(2)" fill="none" stroke="#00FF8A" stroke-width="2" stroke-linecap="round" stroke-linejoin="round"><polygon points="8,4 16,4 18,20 6,20"/><line x1="12" y1="7" x2="12" y2="9"/><line x1="12" y1="11" x2="12" y2="13"/><line x1="12" y1="15" x2="12" y2="17"/></g><text x="750.0" y="504" fill="#77E5B1" font-family="SFMono-Regular, Menlo, monospace" font-size="10" text-anchor="middle" letter-spacing="0.8">AIRSTRIP</text><rect x="24" y="530" width="120" height="106" rx="16" fill="none" stroke="#0A3821" stroke-width="1"/><g transform="translate(66.0,554) scale(2)" fill="none" stroke="#00FF8A" stroke-width="2" stroke-linecap="round" stroke-linejoin="round"><path d="M5 15l2-4h8l3 4v3H5z"/><circle cx="8" cy="18" r="2"/><circle cx="16" cy="18" r="2"/><line x1="9" y1="11" x2="14" y2="11"/></g><text x="90.0" y="622" fill="#77E5B1" font-family="SFMono-Regular, Menlo, monospace" font-size="10" text-anchor="middle" letter-spacing="0.8">VEHICLE</text><rect x="156" y="530" width="120" height="106" rx="16" fill="none" stroke="#0A3821" stroke-width="1"/><g transform="translate(198.0,554) scale(2)" fill="none" stroke="#00FF8A" stroke-width="2" stroke-linecap="round" stroke-linejoin="round"><path d="M4 14l2.5-4h9l4 4v4H4z"/><circle cx="8" cy="18" r="2.5"/><circle cx="17" cy="18" r="2.5"/><line x1="9" y1="10" x2="14" y2="10"/><polyline points="8,8 9,6 15,6 16,8"/></g><text x="222.0" y="622" fill="#77E5B1" font-family="SFMono-Regular, Menlo, monospace" font-size="10" text-anchor="middle" letter-spacing="0.8">4WD</text><rect x="288" y="530" width="120" height="106" rx="16" fill="none" stroke="#0A3821" stroke-width="1"/><g transform="translate(330.0,554) scale(2)" fill="none" stroke="#00FF8A" stroke-width="2" stroke-linecap="round" stroke-linejoin="round"><polygon points="4,19 12,5 20,19"/><line x1="12" y1="5" x2="12" y2="19"/><polyline points="9,19 12,14 15,19"/></g><text x="354.0" y="622" fill="#77E5B1" font-family="SFMono-Regular, Menlo, monospace" font-size="10" text-anchor="middle" letter-spacing="0.8">TENT</text><rect x="420" y="530" width="120" height="106" rx="16" fill="none" stroke="#0A3821" stroke-width="1"/><g transform="translate(462.0,554) scale(2)" fill="none" stroke="#00FF8A" stroke-width="2" stroke-linecap="round" stroke-linejoin="round"><path d="M10 9c0-2 1.8-3.3 3-5 .5 1 2 2 2 4a4 4 0 0 1-8 0c0-1.4.8-2.7 2-3.5"/><line x1="7" y1="19" x2="17" y2="13"/><line x1="17" y1="19" x2="7" y2="13"/></g><text x="486.0" y="622" fill="#77E5B1" font-family="SFMono-Regular, Menlo, monospace" font-size="10" text-anchor="middle" letter-spacing="0.8">CAMP</text><rect x="552" y="530" width="120" height="106" rx="16" fill="none" stroke="#0A3821" stroke-width="1"/><g transform="translate(594.0,554) scale(2)" fill="none" stroke="#00FF8A" stroke-width="2" stroke-linecap="round" stroke-linejoin="round"><path d="M10.5 5h3"/><rect x="9" y="7" width="6" height="12" rx="1.5"/><polyline points="15,7 17,8.5 17,12"/><polyline points="17,12 19,13.5 18,15"/><line x1="11" y1="11" x2="13" y2="11"/></g><text x="618.0" y="622" fill="#77E5B1" font-family="SFMono-Regular, Menlo, monospace" font-size="10" text-anchor="middle" letter-spacing="0.8">EXTINGUISHER</text><rect x="684" y="530" width="120" height="106" rx="16" fill="none" stroke="#0A3821" stroke-width="1"/><g transform="translate(726.0,554) scale(2)" fill="none" stroke="#00FF8A" stroke-width="2" stroke-linecap="round" stroke-linejoin="round"><path d="M6 4h8l4 4v12H6z"/><path d="M14 4v4h4"/><line x1="9" y1="11" x2="15" y2="17"/><line x1="15" y1="11" x2="9" y2="17"/></g><text x="750.0" y="622" fill="#77E5B1" font-family="SFMono-Regular, Menlo, monospace" font-size="10" text-anchor="middle" letter-spacing="0.8">BLANKET</text><rect x="24" y="648" width="120" height="106" rx="16" fill="none" stroke="#0A3821" stroke-width="1"/><g transform="translate(66.0,672) scale(2)" fill="none" stroke="#00FF8A" stroke-width="2" stroke-linecap="round" stroke-linejoin="round"><circle cx="12" cy="12" r="6"/><circle cx="12" cy="12" r="2.5"/><path d="M16.2 7.8l2.3-2.3"/><path d="M16 16l3 3"/><path d="M19 19l2-1"/></g><text x="90.0" y="740" fill="#77E5B1" font-family="SFMono-Regular, Menlo, monospace" font-size="10" text-anchor="middle" letter-spacing="0.8">ROPE</text><rect x="156" y="648" width="120" height="106" rx="16" fill="none" stroke="#0A3821" stroke-width="1"/><g transform="translate(198.0,672) scale(2)" fill="none" stroke="#00FF8A" stroke-width="2" stroke-linecap="round" stroke-linejoin="round"><path d="M5 11h6a3 3 0 1 1 0 6H7l-2 2z"/><circle cx="13.5" cy="14" r="1.5"/></g><text x="222.0" y="740" fill="#77E5B1" font-family="SFMono-Regular, Menlo, monospace" font-size="10" text-anchor="middle" letter-spacing="0.8">WHISTLE</text><rect x="288" y="648" width="120" height="106" rx="16" fill="none" stroke="#0A3821" stroke-width="1"/><g transform="translate(330.0,672) scale(2)" fill="none" stroke="#00FF8A" stroke-width="2" stroke-linecap="round" stroke-linejoin="round"><path d="M5 18l4-4 6-8 2 2-8 6-4 4z"/><line x1="7.5" y1="16.5" x2="9.5" y2="18.5"/></g><text x="354.0" y="740" fill="#77E5B1" font-family="SFMono-Regular, Menlo, monospace" font-size="10" text-anchor="middle" letter-spacing="0.8">KNIFE</text><rect x="420" y="648" width="120" height="106" rx="16" fill="none" stroke="#0A3821" stroke-width="1"/><g transform="translate(462.0,672) scale(2)" fill="none" stroke="#00FF8A" stroke-width="2" stroke-linecap="round" stroke-linejoin="round"><circle cx="7.5" cy="10.5" r="1.2"/><circle cx="10.5" cy="8" r="1.2"/><circle cx="13.5" cy="8" r="1.2"/><circle cx="16.5" cy="10.5" r="1.2"/><path d="M8 16c0-2 1.8-4 4-4s4 2 4 4c0 1.7-1.8 3-4 3s-4-1.3-4-3z"/></g><text x="486.0" y="740" fill="#77E5B1" font-family="SFMono-Regular, Menlo, monospace" font-size="10" text-anchor="middle" letter-spacing="0.8">PET</text><rect x="552" y="648" width="120" height="106" rx="16" fill="none" stroke="#0A3821" stroke-width="1"/><g transform="translate(594.0,672) scale(2)" fill="none" stroke="#00FF8A" stroke-width="2" stroke-linecap="round" stroke-linejoin="round"><polyline points="8,10 6,6 5,9"/><polyline points="16,10 18,6 19,9"/><path d="M7 10v4c0 3.3 2.2 6 5 6s5-2.7 5-6v-4"/><path d="M10 16c1 .8 3 .8 4 0"/></g><text x="618.0" y="740" fill="#77E5B1" font-family="SFMono-Regular, Menlo, monospace" font-size="10" text-anchor="middle" letter-spacing="0.8">DOG</text><rect x="684" y="648" width="120" height="106" rx="16" fill="none" stroke="#0A3821" stroke-width="1"/><g transform="translate(726.0,672) scale(2)" fill="none" stroke="#00FF8A" stroke-width="2" stroke-linecap="round" stroke-linejoin="round"><polyline points="7,9 4.5,6.5 5.2,9.2"/><polyline points="17,9 19.5,6.5 18.8,9.2"/><path d="M7 9v5c0 3.2 2.2 5.5 5 5.5s5-2.3 5-5.5V9"/><rect x="9" y="14" width="6" height="4" rx="2"/><line x1="9.5" y1="18" x2="8.5" y2="20"/><line x1="14.5" y1="18" x2="15.5" y2="20"/></g><text x="750.0" y="740" fill="#77E5B1" font-family="SFMono-Regular, Menlo, monospace" font-size="10" text-anchor="middle" letter-spacing="0.8">LIVESTOCK</text><rect x="24" y="766" width="120" height="106" rx="16" fill="none" stroke="#0A3821" stroke-width="1"/><g transform="translate(66.0,790) scale(2)" fill="none" stroke="#00FF8A" stroke-width="2" stroke-linecap="round" stroke-linejoin="round"><circle cx="8" cy="8.5" r="2"/><circle cx="16" cy="8.5" r="2"/><circle cx="12" cy="11.5" r="1.6"/><path d="M4.5 18c0-2.1 1.6-3.8 3.5-3.8s3.5 1.7 3.5 3.8"/><path d="M12 18c0-2.1 1.8-3.8 4-3.8s4 1.7 4 3.8"/><path d="M9.5 18c0-1.7 1-3 2.5-3s2.5 1.3 2.5 3"/></g><text x="90.0" y="858" fill="#77E5B1" font-family="SFMono-Regular, Menlo, monospace" font-size="10" text-anchor="middle" letter-spacing="0.8">FAMILY</text><rect x="156" y="766" width="120" height="106" rx="16" fill="none" stroke="#0A3821" stroke-width="1"/><g transform="translate(198.0,790) scale(2)" fill="none" stroke="#00FF8A" stroke-width="2" stroke-linecap="round" stroke-linejoin="round"><polyline points="4,9 4,4 9,4"/><polyline points="20,9 20,4 15,4"/><polyline points="4,15 4,20 9,20"/><polyline points="20,15 20,20 15,20"/><circle cx="12" cy="12" r="2"/></g><text x="222.0" y="858" fill="#77E5B1" font-family="SFMono-Regular, Menlo, monospace" font-size="10" text-anchor="middle" letter-spacing="0.8">MEETING</text></svg>
