<svg xmlns="http://www.w3.org/2000/svg" viewBox="0 0 48 48" width="48" height="48"><g fill="none" stroke="#FFD60A" stroke-width="2" stroke-linecap="round" stroke-linejoin="round"><path d="M24 43C24 43 12 31.8 12 20.5 12 13.6 17.4 8 24 8s12 5.6 12 12.5C36 31.8 24 43 24 43Z"/><g transform="translate(14.640 9.640) scale(0.780)" fill="none"><path d="M8 20l2.2-8"/><path d="M16 20l-2.2-8"/><path d="M12 4c1.5 2 3 3.2 3 5a3 3 0 0 1-6 0c0-1.8 1.1-3.2 3-5z"/><line x1="12" y1="12" x2="12" y2="18"/></g></g></svg>
