<svg xmlns="http://www.w3.org/2000/svg" viewBox="0 0 48 48" width="48" height="48"><g fill="none" stroke="#32D74B" stroke-width="2" stroke-linecap="round" stroke-linejoin="round"><path d="M24 43C24 43 12 31.8 12 20.5 12 13.6 17.4 8 24 8s12 5.6 12 12.5C36 31.8 24 43 24 43Z"/><g transform="translate(14.880 10.580) scale(0.760)" fill="none"><path d="M7 7c0-1.1 2.2-2 5-2s5 .9 5 2v10c0 1.1-2.2 2-5 2s-5-.9-5-2z"/><path d="M7 7c0 1.1 2.2 2 5 2s5-.9 5-2"/><path d="M7 17c0 1.1 2.2 2 5 2s5-.9 5-2"/></g></g></svg>
