<svg xmlns="http://www.w3.org/2000/svg" viewBox="0 0 760 430" width="760" height="430"><rect x="0" y="0" width="760" height="430" rx="28" fill="#000000"/><rect x="1" y="1" width="758" height="428" rx="27" fill="none" stroke="#3A3A3C" stroke-width="2"/><text x="36" y="48" fill="#FFFFFF" font-family="SF Pro Display, -apple-system, BlinkMacSystemFont, sans-serif" font-size="28" font-weight="700">Map Legend</text><text x="36" y="72" fill="#8E8E93" font-family="SF Pro Display, -apple-system, BlinkMacSystemFont, sans-serif" font-size="14">Emergency navigation markers tuned for dark maps and fast recognition.</text><circle cx="36" cy="102" r="5" fill="#32D74B" stroke="none"/><text x="48" y="106" fill="#8E8E93" font-family="SF Pro Display, -apple-system, BlinkMacSystemFont, sans-serif" font-size="12">Safe resources</text><circle cx="174" cy="102" r="5" fill="#0A84FF" stroke="none"/><text x="186" y="106" fill="#8E8E93" font-family="SF Pro Display, -apple-system, BlinkMacSystemFont, sans-serif" font-size="12">Water</text><circle cx="312" cy="102" r="5" fill="#FF453A" stroke="none"/><text x="324" y="106" fill="#8E8E93" font-family="SF Pro Display, -apple-system, BlinkMacSystemFont, sans-serif" font-size="12">Emergency</text><circle cx="450" cy="102" r="5" fill="#FFD60A" stroke="none"/><text x="462" y="106" fill="#8E8E93" font-family="SF Pro Display, -apple-system, BlinkMacSystemFont, sans-serif" font-size="12">Warnings</text><circle cx="588" cy="102" r="5" fill="#64D2FF" stroke="none"/><text x="600" y="106" fill="#8E8E93" font-family="SF Pro Display, -apple-system, BlinkMacSystemFont, sans-serif" font-size="12">Information</text><g transform="translate(36 138) scale(0.95)" fill="none" stroke="#32D74B" stroke-width="2" stroke-linecap="round" stroke-linejoin="round"><path d="M24 43C24 43 12 31.8 12 20.5 12 13.6 17.4 8 24 8s12 5.6 12 12.5C36 31.8 24 43 24 43Z"/><g transform="translate(14.640 9.640) scale(0.780)" fill="none"><polyline points="4,11 12,5 20,11"/><path d="M6 10.5V19h12v-8.5"/><path d="M10 19v-4h4v4"/></g></g><text x="100" y="172" fill="#FFFFFF" font-family="SF Pro Display, -apple-system, BlinkMacSystemFont, sans-serif" font-size="16" font-weight="600">Shelter</text><g transform="translate(390 138) scale(0.95)" fill="none" stroke="#0A84FF" stroke-width="2" stroke-linecap="round" stroke-linejoin="round"><path d="M24 43C24 43 12 31.8 12 20.5 12 13.6 17.4 8 24 8s12 5.6 12 12.5C36 31.8 24 43 24 43Z"/><g transform="translate(14.640 9.640) scale(0.780)" fill="none"><path d="M12 4C9 8 7 10.5 7 14a5 5 0 0 0 10 0c0-3.5-2-6-5-10z"/><path d="M9.5 14c1 .8 4 .8 5 0"/></g></g><text x="454" y="172" fill="#FFFFFF" font-family="SF Pro Display, -apple-system, BlinkMacSystemFont, sans-serif" font-size="16" font-weight="600">Water</text><g transform="translate(36 216) scale(0.95)" fill="none" stroke="#FFD60A" stroke-width="2" stroke-linecap="round" stroke-linejoin="round"><path d="M24 43C24 43 12 31.8 12 20.5 12 13.6 17.4 8 24 8s12 5.6 12 12.5C36 31.8 24 43 24 43Z"/><g transform="translate(14.880 10.680) scale(0.760)" fill="none"><rect x="6.5" y="6" width="7.5" height="12" rx="1.6"/><line x1="8.5" y1="9" x2="12" y2="9"/><line x1="8.5" y1="12" x2="12" y2="12"/><path d="M14 8h2l2 2.5V17"/><path d="M16.5 12.5h1.5"/></g></g><text x="100" y="250" fill="#FFFFFF" font-family="SF Pro Display, -apple-system, BlinkMacSystemFont, sans-serif" font-size="16" font-weight="600">Fuel</text><g transform="translate(390 216) scale(0.95)" fill="none" stroke="#FF453A" stroke-width="2" stroke-linecap="round" stroke-linejoin="round"><path d="M24 43C24 43 12 31.8 12 20.5 12 13.6 17.4 8 24 8s12 5.6 12 12.5C36 31.8 24 43 24 43Z"/><g transform="translate(14.640 9.640) scale(0.780)" fill="none"><circle cx="12" cy="12" r="7"/><line x1="12" y1="8.5" x2="12" y2="15.5"/><line x1="8.5" y1="12" x2="15.5" y2="12"/></g></g><text x="454" y="250" fill="#FFFFFF" font-family="SF Pro Display, -apple-system, BlinkMacSystemFont, sans-serif" font-size="16" font-weight="600">Medical</text><g transform="translate(36 294) scale(0.95)" fill="none" stroke="#FFD60A" stroke-width="2" stroke-linecap="round" stroke-linejoin="round"><path d="M24 43C24 43 12 31.8 12 20.5 12 13.6 17.4 8 24 8s12 5.6 12 12.5C36 31.8 24 43 24 43Z"/><g transform="translate(14.640 9.640) scale(0.780)" fill="none"><path d="M8 20l2.2-8"/><path d="M16 20l-2.2-8"/><path d="M12 4c1.5 2 3 3.2 3 5a3 3 0 0 1-6 0c0-1.8 1.1-3.2 3-5z"/><line x1="12" y1="12" x2="12" y2="18"/></g></g><text x="100" y="328" fill="#FFFFFF" font-family="SF Pro Display, -apple-system, BlinkMacSystemFont, sans-serif" font-size="16" font-weight="600">Fire Trail</text><g transform="translate(390 294) scale(0.95)" fill="none" stroke="#64D2FF" stroke-width="2" stroke-linecap="round" stroke-linejoin="round"><path d="M24 43C24 43 12 31.8 12 20.5 12 13.6 17.4 8 24 8s12 5.6 12 12.5C36 31.8 24 43 24 43Z"/><g transform="translate(15.120 11.020) scale(0.740)" fill="none"><polygon points="8,4 16,4 18,20 6,20"/><line x1="12" y1="7" x2="12" y2="9"/><line x1="12" y1="11" x2="12" y2="13"/><line x1="12" y1="15" x2="12" y2="17"/></g></g><text x="454" y="328" fill="#FFFFFF" font-family="SF Pro Display, -apple-system, BlinkMacSystemFont, sans-serif" font-size="16" font-weight="600">Airstrip</text><g transform="translate(36 372) scale(0.95)" fill="none" stroke="#32D74B" stroke-width="2" stroke-linecap="round" stroke-linejoin="round"><path d="M24 43C24 43 12 31.8 12 20.5 12 13.6 17.4 8 24 8s12 5.6 12 12.5C36 31.8 24 43 24 43Z"/><g transform="translate(15.360 11.060) scale(0.720)" fill="none"><circle cx="12" cy="11.5" r="1.5"/><path d="M9 9a4 4 0 0 0 0 5"/><path d="M15 9a4 4 0 0 1 0 5"/><path d="M7 6a7 7 0 0 0 0 11"/><path d="M17 6a7 7 0 0 1 0 11"/><line x1="12" y1="13.5" x2="12" y2="18.5"/><line x1="8" y1="19" x2="16" y2="19"/></g></g><text x="100" y="406" fill="#FFFFFF" font-family="SF Pro Display, -apple-system, BlinkMacSystemFont, sans-serif" font-size="16" font-weight="600">Beacon</text></svg>
