<svg xmlns="http://www.w3.org/2000/svg" viewBox="0 0 764 966" width="764" height="966"><rect x="0" y="0" width="764" height="966" fill="#000000"/><line x1="32" y1="0" x2="32" y2="966" stroke="#1F1F22" stroke-width="1"/><line x1="128" y1="0" x2="128" y2="966" stroke="#1F1F22" stroke-width="1"/><line x1="224" y1="0" x2="224" y2="966" stroke="#1F1F22" stroke-width="1"/><line x1="320" y1="0" x2="320" y2="966" stroke="#1F1F22" stroke-width="1"/><line x1="416" y1="0" x2="416" y2="966" stroke="#1F1F22" stroke-width="1"/><line x1="512" y1="0" x2="512" y2="966" stroke="#1F1F22" stroke-width="1"/><line x1="608" y1="0" x2="608" y2="966" stroke="#1F1F22" stroke-width="1"/><line x1="704" y1="0" x2="704" y2="966" stroke="#1F1F22" stroke-width="1"/><line x1="0" y1="88" x2="764" y2="88" stroke="#1F1F22" stroke-width="1"/><line x1="0" y1="184" x2="764" y2="184" stroke="#1F1F22" stroke-width="1"/><line x1="0" y1="280" x2="764" y2="280" stroke="#1F1F22" stroke-width="1"/><line x1="0" y1="376" x2="764" y2="376" stroke="#1F1F22" stroke-width="1"/><line x1="0" y1="472" x2="764" y2="472" stroke="#1F1F22" stroke-width="1"/><line x1="0" y1="568" x2="764" y2="568" stroke="#1F1F22" stroke-width="1"/><line x1="0" y1="664" x2="764" y2="664" stroke="#1F1F22" stroke-width="1"/><line x1="0" y1="760" x2="764" y2="760" stroke="#1F1F22" stroke-width="1"/><line x1="0" y1="856" x2="764" y2="856" stroke="#1F1F22" stroke-width="1"/><line x1="0" y1="952" x2="764" y2="952" stroke="#1F1F22" stroke-width="1"/><text x="32" y="44" fill="#FFFFFF" font-family="SF Pro Display, -apple-system, BlinkMacSystemFont, sans-serif" font-size="28" font-weight="700">RediM8 Map Marker System</text><text x="32" y="68" fill="#8E8E93" font-family="SF Pro Display, -apple-system, BlinkMacSystemFont, sans-serif" font-size="14">48x48 tactical pins for dark offline maps, plus layer overlays and fixed emergency color roles.</text><circle cx="442" cy="44" r="7" fill="#32D74B" stroke="none"/><text x="442" y="49" fill="#000000" font-family="SF Pro Display, -apple-system, BlinkMacSystemFont, sans-serif" font-size="10" font-weight="700" text-anchor="middle">S</text><circle cx="500" cy="44" r="7" fill="#0A84FF" stroke="none"/><text x="500" y="49" fill="#000000" font-family="SF Pro Display, -apple-system, BlinkMacSystemFont, sans-serif" font-size="10" font-weight="700" text-anchor="middle">W</text><circle cx="558" cy="44" r="7" fill="#FF453A" stroke="none"/><text x="558" y="49" fill="#000000" font-family="SF Pro Display, -apple-system, BlinkMacSystemFont, sans-serif" font-size="10" font-weight="700" text-anchor="middle">E</text><circle cx="616" cy="44" r="7" fill="#FFD60A" stroke="none"/><text x="616" y="49" fill="#000000" font-family="SF Pro Display, -apple-system, BlinkMacSystemFont, sans-serif" font-size="10" font-weight="700" text-anchor="middle">W</text><circle cx="674" cy="44" r="7" fill="#64D2FF" stroke="none"/><text x="674" y="49" fill="#000000" font-family="SF Pro Display, -apple-system, BlinkMacSystemFont, sans-serif" font-size="10" font-weight="700" text-anchor="middle">I</text><rect x="32" y="96" width="128" height="112" rx="22" fill="none" stroke="#3A3A3C" stroke-width="1"/><g transform="translate(72 108)" fill="none" stroke="#32D74B" stroke-width="2" stroke-linecap="round" stroke-linejoin="round"><path d="M24 43C24 43 12 31.8 12 20.5 12 13.6 17.4 8 24 8s12 5.6 12 12.5C36 31.8 24 43 24 43Z"/><g transform="translate(14.640 9.640) scale(0.780)" fill="none"><polyline points="4,11 12,5 20,11"/><path d="M6 10.5V19h12v-8.5"/><path d="M10 19v-4h4v4"/></g></g><text x="96.0" y="191" fill="#FFFFFF" font-family="SF Pro Display, -apple-system, BlinkMacSystemFont, sans-serif" font-size="12" font-weight="600" text-anchor="middle">Shelter</text><rect x="172" y="96" width="128" height="112" rx="22" fill="none" stroke="#3A3A3C" stroke-width="1"/><g transform="translate(212 108)" fill="none" stroke="#FF453A" stroke-width="2" stroke-linecap="round" stroke-linejoin="round"><path d="M24 43C24 43 12 31.8 12 20.5 12 13.6 17.4 8 24 8s12 5.6 12 12.5C36 31.8 24 43 24 43Z"/><g transform="translate(14.640 9.640) scale(0.780)" fill="none"><circle cx="12" cy="12" r="7"/><line x1="12" y1="8.5" x2="12" y2="15.5"/><line x1="8.5" y1="12" x2="15.5" y2="12"/></g></g><text x="236.0" y="191" fill="#FFFFFF" font-family="SF Pro Display, -apple-system, BlinkMacSystemFont, sans-serif" font-size="12" font-weight="600" text-anchor="middle">Medical</text><rect x="312" y="96" width="128" height="112" rx="22" fill="none" stroke="#3A3A3C" stroke-width="1"/><g transform="translate(352 108)" fill="none" stroke="#FF453A" stroke-width="2" stroke-linecap="round" stroke-linejoin="round"><path d="M24 43C24 43 12 31.8 12 20.5 12 13.6 17.4 8 24 8s12 5.6 12 12.5C36 31.8 24 43 24 43Z"/><g transform="translate(15.360 11.260) scale(0.720)" fill="none"><path d="M9 8V6.5a3 3 0 0 1 6 0V8"/><rect x="4" y="8" width="16" height="11" rx="2.5"/><line x1="12" y1="10.8" x2="12" y2="16.2"/><line x1="9.3" y1="13.5" x2="14.7" y2="13.5"/></g></g><text x="376.0" y="191" fill="#FFFFFF" font-family="SF Pro Display, -apple-system, BlinkMacSystemFont, sans-serif" font-size="12" font-weight="600" text-anchor="middle">First Aid</text><rect x="452" y="96" width="128" height="112" rx="22" fill="none" stroke="#3A3A3C" stroke-width="1"/><g transform="translate(492 108)" fill="none" stroke="#FF453A" stroke-width="2" stroke-linecap="round" stroke-linejoin="round"><path d="M24 43C24 43 12 31.8 12 20.5 12 13.6 17.4 8 24 8s12 5.6 12 12.5C36 31.8 24 43 24 43Z"/><g transform="translate(14.640 9.640) scale(0.780)" fill="none"><rect x="5.5" y="5.5" width="13" height="13" rx="2.2"/><line x1="8.5" y1="8.2" x2="8.5" y2="15.8"/><line x1="15.5" y1="8.2" x2="15.5" y2="15.8"/><line x1="8.5" y1="12" x2="15.5" y2="12"/></g></g><text x="516.0" y="191" fill="#FFFFFF" font-family="SF Pro Display, -apple-system, BlinkMacSystemFont, sans-serif" font-size="12" font-weight="600" text-anchor="middle">Hospital</text><rect x="592" y="96" width="128" height="112" rx="22" fill="none" stroke="#3A3A3C" stroke-width="1"/><g transform="translate(632 108)" fill="none" stroke="#64D2FF" stroke-width="2" stroke-linecap="round" stroke-linejoin="round"><path d="M24 43C24 43 12 31.8 12 20.5 12 13.6 17.4 8 24 8s12 5.6 12 12.5C36 31.8 24 43 24 43Z"/><g transform="translate(14.640 9.640) scale(0.780)" fill="none"><path d="M12 4.5l6 2.4v4.1c0 4-2.5 6.9-6 8.9-3.5-2-6-4.9-6-8.9V6.9z"/><line x1="12" y1="8.5" x2="12" y2="13.5"/><line x1="9.5" y1="11" x2="14.5" y2="11"/></g></g><text x="656.0" y="191" fill="#FFFFFF" font-family="SF Pro Display, -apple-system, BlinkMacSystemFont, sans-serif" font-size="12" font-weight="600" text-anchor="middle">Police</text><rect x="32" y="220" width="128" height="112" rx="22" fill="none" stroke="#3A3A3C" stroke-width="1"/><g transform="translate(72 232)" fill="none" stroke="#FFD60A" stroke-width="2" stroke-linecap="round" stroke-linejoin="round"><path d="M24 43C24 43 12 31.8 12 20.5 12 13.6 17.4 8 24 8s12 5.6 12 12.5C36 31.8 24 43 24 43Z"/><g transform="translate(14.640 9.640) scale(0.780)" fill="none"><polygon points="12,4 20,19 4,19"/><line x1="12" y1="9" x2="12" y2="13.5"/><circle cx="12" cy="16.8" r="0.9"/></g></g><text x="96.0" y="315" fill="#FFFFFF" font-family="SF Pro Display, -apple-system, BlinkMacSystemFont, sans-serif" font-size="12" font-weight="600" text-anchor="middle">Warning</text><rect x="172" y="220" width="128" height="112" rx="22" fill="none" stroke="#3A3A3C" stroke-width="1"/><g transform="translate(212 232)" fill="none" stroke="#0A84FF" stroke-width="2" stroke-linecap="round" stroke-linejoin="round"><path d="M24 43C24 43 12 31.8 12 20.5 12 13.6 17.4 8 24 8s12 5.6 12 12.5C36 31.8 24 43 24 43Z"/><g transform="translate(14.640 9.640) scale(0.780)" fill="none"><path d="M12 4C9 8 7 10.5 7 14a5 5 0 0 0 10 0c0-3.5-2-6-5-10z"/><path d="M9.5 14c1 .8 4 .8 5 0"/></g></g><text x="236.0" y="315" fill="#FFFFFF" font-family="SF Pro Display, -apple-system, BlinkMacSystemFont, sans-serif" font-size="12" font-weight="600" text-anchor="middle">Water</text><rect x="312" y="220" width="128" height="112" rx="22" fill="none" stroke="#3A3A3C" stroke-width="1"/><g transform="translate(352 232)" fill="none" stroke="#FFD60A" stroke-width="2" stroke-linecap="round" stroke-linejoin="round"><path d="M24 43C24 43 12 31.8 12 20.5 12 13.6 17.4 8 24 8s12 5.6 12 12.5C36 31.8 24 43 24 43Z"/><g transform="translate(14.880 10.680) scale(0.760)" fill="none"><rect x="6.5" y="6" width="7.5" height="12" rx="1.6"/><line x1="8.5" y1="9" x2="12" y2="9"/><line x1="8.5" y1="12" x2="12" y2="12"/><path d="M14 8h2l2 2.5V17"/><path d="M16.5 12.5h1.5"/></g></g><text x="376.0" y="315" fill="#FFFFFF" font-family="SF Pro Display, -apple-system, BlinkMacSystemFont, sans-serif" font-size="12" font-weight="600" text-anchor="middle">Fuel</text><rect x="452" y="220" width="128" height="112" rx="22" fill="none" stroke="#3A3A3C" stroke-width="1"/><g transform="translate(492 232)" fill="none" stroke="#32D74B" stroke-width="2" stroke-linecap="round" stroke-linejoin="round"><path d="M24 43C24 43 12 31.8 12 20.5 12 13.6 17.4 8 24 8s12 5.6 12 12.5C36 31.8 24 43 24 43Z"/><g transform="translate(14.880 10.580) scale(0.760)" fill="none"><path d="M7 7c0-1.1 2.2-2 5-2s5 .9 5 2v10c0 1.1-2.2 2-5 2s-5-.9-5-2z"/><path d="M7 7c0 1.1 2.2 2 5 2s5-.9 5-2"/><path d="M7 17c0 1.1 2.2 2 5 2s5-.9 5-2"/></g></g><text x="516.0" y="315" fill="#FFFFFF" font-family="SF Pro Display, -apple-system, BlinkMacSystemFont, sans-serif" font-size="12" font-weight="600" text-anchor="middle">Food</text><rect x="592" y="220" width="128" height="112" rx="22" fill="none" stroke="#3A3A3C" stroke-width="1"/><g transform="translate(632 232)" fill="none" stroke="#FF453A" stroke-width="2" stroke-linecap="round" stroke-linejoin="round"><path d="M24 43C24 43 12 31.8 12 20.5 12 13.6 17.4 8 24 8s12 5.6 12 12.5C36 31.8 24 43 24 43Z"/><g transform="translate(14.640 9.640) scale(0.780)" fill="none"><rect x="4" y="8" width="16" height="8" rx="4"/><line x1="12" y1="8" x2="12" y2="16"/><line x1="7.2" y1="10.8" x2="10" y2="13.6"/></g></g><text x="656.0" y="315" fill="#FFFFFF" font-family="SF Pro Display, -apple-system, BlinkMacSystemFont, sans-serif" font-size="12" font-weight="600" text-anchor="middle">Pharmacy</text><rect x="32" y="344" width="128" height="112" rx="22" fill="none" stroke="#3A3A3C" stroke-width="1"/><g transform="translate(72 356)" fill="none" stroke="#64D2FF" stroke-width="2" stroke-linecap="round" stroke-linejoin="round"><path d="M24 43C24 43 12 31.8 12 20.5 12 13.6 17.4 8 24 8s12 5.6 12 12.5C36 31.8 24 43 24 43Z"/><g transform="translate(15.360 11.160) scale(0.720)" fill="none"><circle cx="16.8" cy="7.5" r="2.1"/><path d="M15.4 8.9l-8.7 8.7"/><line x1="6.7" y1="17.6" x2="8.9" y2="19.8"/><path d="M10 8l2.2 2.2"/><line x1="8.5" y1="9.5" x2="12.5" y2="5.5"/></g></g><text x="96.0" y="439" fill="#FFFFFF" font-family="SF Pro Display, -apple-system, BlinkMacSystemFont, sans-serif" font-size="12" font-weight="600" text-anchor="middle">Hardware</text><rect x="172" y="344" width="128" height="112" rx="22" fill="none" stroke="#3A3A3C" stroke-width="1"/><g transform="translate(212 356)" fill="none" stroke="#64D2FF" stroke-width="2" stroke-linecap="round" stroke-linejoin="round"><path d="M24 43C24 43 12 31.8 12 20.5 12 13.6 17.4 8 24 8s12 5.6 12 12.5C36 31.8 24 43 24 43Z"/><g transform="translate(14.640 9.640) scale(0.780)" fill="none"><path d="M8 20L10.5 4"/><path d="M16 20L13.5 4"/><line x1="12" y1="6" x2="12" y2="8"/><line x1="12" y1="10" x2="12" y2="12"/><line x1="12" y1="14" x2="12" y2="16"/><line x1="12" y1="18" x2="12" y2="19"/></g></g><text x="236.0" y="439" fill="#FFFFFF" font-family="SF Pro Display, -apple-system, BlinkMacSystemFont, sans-serif" font-size="12" font-weight="600" text-anchor="middle">Dirt Road</text><rect x="312" y="344" width="128" height="112" rx="22" fill="none" stroke="#3A3A3C" stroke-width="1"/><g transform="translate(352 356)" fill="none" stroke="#FFD60A" stroke-width="2" stroke-linecap="round" stroke-linejoin="round"><path d="M24 43C24 43 12 31.8 12 20.5 12 13.6 17.4 8 24 8s12 5.6 12 12.5C36 31.8 24 43 24 43Z"/><g transform="translate(14.640 9.640) scale(0.780)" fill="none"><path d="M8 20l2.2-8"/><path d="M16 20l-2.2-8"/><path d="M12 4c1.5 2 3 3.2 3 5a3 3 0 0 1-6 0c0-1.8 1.1-3.2 3-5z"/><line x1="12" y1="12" x2="12" y2="18"/></g></g><text x="376.0" y="439" fill="#FFFFFF" font-family="SF Pro Display, -apple-system, BlinkMacSystemFont, sans-serif" font-size="12" font-weight="600" text-anchor="middle">Fire Trail</text><rect x="452" y="344" width="128" height="112" rx="22" fill="none" stroke="#3A3A3C" stroke-width="1"/><g transform="translate(492 356)" fill="none" stroke="#64D2FF" stroke-width="2" stroke-linecap="round" stroke-linejoin="round"><path d="M24 43C24 43 12 31.8 12 20.5 12 13.6 17.4 8 24 8s12 5.6 12 12.5C36 31.8 24 43 24 43Z"/><g transform="translate(14.640 9.640) scale(0.780)" fill="none"><circle cx="6" cy="18" r="1.4"/><circle cx="18" cy="6" r="1.4"/><path d="M7.5 18C11.5 18 9.5 10 14 10h2.5"/><polyline points="16.5,8 18.5,6 16.5,4"/></g></g><text x="516.0" y="439" fill="#FFFFFF" font-family="SF Pro Display, -apple-system, BlinkMacSystemFont, sans-serif" font-size="12" font-weight="600" text-anchor="middle">Route</text><rect x="592" y="344" width="128" height="112" rx="22" fill="none" stroke="#3A3A3C" stroke-width="1"/><g transform="translate(632 356)" fill="none" stroke="#64D2FF" stroke-width="2" stroke-linecap="round" stroke-linejoin="round"><path d="M24 43C24 43 12 31.8 12 20.5 12 13.6 17.4 8 24 8s12 5.6 12 12.5C36 31.8 24 43 24 43Z"/><g transform="translate(14.640 9.640) scale(0.780)" fill="none"><line x1="7" y1="5.5" x2="7" y2="19"/><path d="M7 7h9l-2.7 3 2.7 3H7"/><line x1="5" y1="19" x2="19" y2="19"/></g></g><text x="656.0" y="439" fill="#FFFFFF" font-family="SF Pro Display, -apple-system, BlinkMacSystemFont, sans-serif" font-size="12" font-weight="600" text-anchor="middle">Checkpoint</text><rect x="32" y="468" width="128" height="112" rx="22" fill="none" stroke="#3A3A3C" stroke-width="1"/><g transform="translate(72 480)" fill="none" stroke="#64D2FF" stroke-width="2" stroke-linecap="round" stroke-linejoin="round"><path d="M24 43C24 43 12 31.8 12 20.5 12 13.6 17.4 8 24 8s12 5.6 12 12.5C36 31.8 24 43 24 43Z"/><g transform="translate(15.120 11.020) scale(0.740)" fill="none"><polygon points="8,4 16,4 18,20 6,20"/><line x1="12" y1="7" x2="12" y2="9"/><line x1="12" y1="11" x2="12" y2="13"/><line x1="12" y1="15" x2="12" y2="17"/></g></g><text x="96.0" y="563" fill="#FFFFFF" font-family="SF Pro Display, -apple-system, BlinkMacSystemFont, sans-serif" font-size="12" font-weight="600" text-anchor="middle">Airstrip</text><rect x="172" y="468" width="128" height="112" rx="22" fill="none" stroke="#3A3A3C" stroke-width="1"/><g transform="translate(212 480)" fill="none" stroke="#32D74B" stroke-width="2" stroke-linecap="round" stroke-linejoin="round"><path d="M24 43C24 43 12 31.8 12 20.5 12 13.6 17.4 8 24 8s12 5.6 12 12.5C36 31.8 24 43 24 43Z"/><g transform="translate(14.640 10.340) scale(0.780)" fill="none"><polygon points="4,19 12,5 20,19"/><line x1="12" y1="5" x2="12" y2="19"/><polyline points="9,19 12,14 15,19"/></g></g><text x="236.0" y="563" fill="#FFFFFF" font-family="SF Pro Display, -apple-system, BlinkMacSystemFont, sans-serif" font-size="12" font-weight="600" text-anchor="middle">Campground</text><rect x="312" y="468" width="128" height="112" rx="22" fill="none" stroke="#3A3A3C" stroke-width="1"/><g transform="translate(352 480)" fill="none" stroke="#FFD60A" stroke-width="2" stroke-linecap="round" stroke-linejoin="round"><path d="M24 43C24 43 12 31.8 12 20.5 12 13.6 17.4 8 24 8s12 5.6 12 12.5C36 31.8 24 43 24 43Z"/><g transform="translate(15.600 11.400) scale(0.700)" fill="none"><path d="M4 14l2.5-4h9l4 4v4H4z"/><circle cx="8" cy="18" r="2.5"/><circle cx="17" cy="18" r="2.5"/><line x1="9" y1="10" x2="14" y2="10"/><polyline points="8,8 9,6 15,6 16,8"/></g></g><text x="376.0" y="563" fill="#FFFFFF" font-family="SF Pro Display, -apple-system, BlinkMacSystemFont, sans-serif" font-size="12" font-weight="600" text-anchor="middle">4WD Track</text><rect x="452" y="468" width="128" height="112" rx="22" fill="none" stroke="#3A3A3C" stroke-width="1"/><g transform="translate(492 480)" fill="none" stroke="#0A84FF" stroke-width="2" stroke-linecap="round" stroke-linejoin="round"><path d="M24 43C24 43 12 31.8 12 20.5 12 13.6 17.4 8 24 8s12 5.6 12 12.5C36 31.8 24 43 24 43Z"/><g transform="translate(14.880 10.480) scale(0.760)" fill="none"><path d="M12 4.5c-2.7 3.7-4.3 5.9-4.3 8.7a4.3 4.3 0 0 0 8.6 0c0-2.8-1.6-5-4.3-8.7z"/><line x1="6" y1="18.2" x2="18" y2="18.2"/><line x1="8.5" y1="20" x2="15.5" y2="20"/></g></g><text x="516.0" y="563" fill="#FFFFFF" font-family="SF Pro Display, -apple-system, BlinkMacSystemFont, sans-serif" font-size="12" font-weight="600" text-anchor="middle">Remote Water</text><rect x="592" y="468" width="128" height="112" rx="22" fill="none" stroke="#3A3A3C" stroke-width="1"/><g transform="translate(632 480)" fill="none" stroke="#32D74B" stroke-width="2" stroke-linecap="round" stroke-linejoin="round"><path d="M24 43C24 43 12 31.8 12 20.5 12 13.6 17.4 8 24 8s12 5.6 12 12.5C36 31.8 24 43 24 43Z"/><g transform="translate(15.120 10.920) scale(0.740)" fill="none"><path d="M6 10l2.2-4h7.6l2.2 4"/><rect x="5" y="10" width="14" height="9" rx="1.8"/><line x1="12" y1="10" x2="12" y2="19"/><line x1="5" y1="14.5" x2="19" y2="14.5"/></g></g><text x="656.0" y="563" fill="#FFFFFF" font-family="SF Pro Display, -apple-system, BlinkMacSystemFont, sans-serif" font-size="12" font-weight="600" text-anchor="middle">Outback Supply</text><rect x="32" y="592" width="128" height="112" rx="22" fill="none" stroke="#3A3A3C" stroke-width="1"/><g transform="translate(72 604)" fill="none" stroke="#32D74B" stroke-width="2" stroke-linecap="round" stroke-linejoin="round"><path d="M24 43C24 43 12 31.8 12 20.5 12 13.6 17.4 8 24 8s12 5.6 12 12.5C36 31.8 24 43 24 43Z"/><g transform="translate(15.360 11.060) scale(0.720)" fill="none"><circle cx="12" cy="11.5" r="1.5"/><path d="M9 9a4 4 0 0 0 0 5"/><path d="M15 9a4 4 0 0 1 0 5"/><path d="M7 6a7 7 0 0 0 0 11"/><path d="M17 6a7 7 0 0 1 0 11"/><line x1="12" y1="13.5" x2="12" y2="18.5"/><line x1="8" y1="19" x2="16" y2="19"/></g></g><text x="96.0" y="687" fill="#FFFFFF" font-family="SF Pro Display, -apple-system, BlinkMacSystemFont, sans-serif" font-size="12" font-weight="600" text-anchor="middle">Community Beacon</text><rect x="172" y="592" width="128" height="112" rx="22" fill="none" stroke="#3A3A3C" stroke-width="1"/><g transform="translate(212 604)" fill="none" stroke="#32D74B" stroke-width="2" stroke-linecap="round" stroke-linejoin="round"><path d="M24 43C24 43 12 31.8 12 20.5 12 13.6 17.4 8 24 8s12 5.6 12 12.5C36 31.8 24 43 24 43Z"/><g transform="translate(14.640 9.640) scale(0.780)" fill="none"><circle cx="12" cy="12" r="1.5"/><path d="M7.5 12a4.5 4.5 0 0 1 9 0"/><path d="M7.5 12a4.5 4.5 0 0 0 9 0"/><line x1="5" y1="12" x2="6.2" y2="12"/><line x1="17.8" y1="12" x2="19" y2="12"/></g></g><text x="236.0" y="687" fill="#FFFFFF" font-family="SF Pro Display, -apple-system, BlinkMacSystemFont, sans-serif" font-size="12" font-weight="600" text-anchor="middle">Signal Node</text><rect x="312" y="592" width="128" height="112" rx="22" fill="none" stroke="#3A3A3C" stroke-width="1"/><g transform="translate(352 604)" fill="none" stroke="#64D2FF" stroke-width="2" stroke-linecap="round" stroke-linejoin="round"><path d="M24 43C24 43 12 31.8 12 20.5 12 13.6 17.4 8 24 8s12 5.6 12 12.5C36 31.8 24 43 24 43Z"/><g transform="translate(15.360 11.360) scale(0.720)" fill="none"><rect x="7" y="7" width="10" height="13" rx="2"/><line x1="10" y1="7" x2="8" y2="3.5"/><line x1="10" y1="11" x2="14" y2="11"/><line x1="10" y1="14" x2="14" y2="14"/><circle cx="13.5" cy="17.3" r="1.5"/><line x1="9" y1="18.8" x2="9.8" y2="18.8"/></g></g><text x="376.0" y="687" fill="#FFFFFF" font-family="SF Pro Display, -apple-system, BlinkMacSystemFont, sans-serif" font-size="12" font-weight="600" text-anchor="middle">Radio</text><text x="32" y="786" fill="#FFFFFF" font-family="SF Pro Display, -apple-system, BlinkMacSystemFont, sans-serif" font-size="20" font-weight="650">Layer Overlays</text><text x="32" y="806" fill="#8E8E93" font-family="SF Pro Display, -apple-system, BlinkMacSystemFont, sans-serif" font-size="13">Circular overlays for map layer toggles, legend chips, and map help surfaces.</text><rect x="32" y="822" width="128" height="96" rx="22" fill="none" stroke="#3A3A3C" stroke-width="1"/><g transform="translate(72 834)" fill="none" stroke="#0A84FF" stroke-width="2" stroke-linecap="round" stroke-linejoin="round"><circle cx="24" cy="24" r="18"/><g transform="translate(14.640 14.640) scale(0.780)" fill="none"><path d="M12 4C9 8 7 10.5 7 14a5 5 0 0 0 10 0c0-3.5-2-6-5-10z"/><path d="M9.5 14c1 .8 4 .8 5 0"/></g></g><text x="96" y="902" fill="#8E8E93" font-family="SF Pro Display, -apple-system, BlinkMacSystemFont, sans-serif" font-size="11" font-weight="500" text-anchor="middle">Water Layer</text><rect x="146" y="822" width="128" height="96" rx="22" fill="none" stroke="#3A3A3C" stroke-width="1"/><g transform="translate(186 834)" fill="none" stroke="#FFD60A" stroke-width="2" stroke-linecap="round" stroke-linejoin="round"><circle cx="24" cy="24" r="18"/><g transform="translate(14.640 14.640) scale(0.780)" fill="none"><path d="M8 20l2.2-8"/><path d="M16 20l-2.2-8"/><path d="M12 4c1.5 2 3 3.2 3 5a3 3 0 0 1-6 0c0-1.8 1.1-3.2 3-5z"/><line x1="12" y1="12" x2="12" y2="18"/></g></g><text x="210" y="902" fill="#8E8E93" font-family="SF Pro Display, -apple-system, BlinkMacSystemFont, sans-serif" font-size="11" font-weight="500" text-anchor="middle">Fire Trails</text><rect x="260" y="822" width="128" height="96" rx="22" fill="none" stroke="#3A3A3C" stroke-width="1"/><g transform="translate(300 834)" fill="none" stroke="#64D2FF" stroke-width="2" stroke-linecap="round" stroke-linejoin="round"><circle cx="24" cy="24" r="18"/><g transform="translate(14.640 14.640) scale(0.780)" fill="none"><path d="M8 20L10.5 4"/><path d="M16 20L13.5 4"/><line x1="12" y1="6" x2="12" y2="8"/><line x1="12" y1="10" x2="12" y2="12"/><line x1="12" y1="14" x2="12" y2="16"/><line x1="12" y1="18" x2="12" y2="19"/></g></g><text x="324" y="902" fill="#8E8E93" font-family="SF Pro Display, -apple-system, BlinkMacSystemFont, sans-serif" font-size="11" font-weight="500" text-anchor="middle">Roads</text><rect x="374" y="822" width="128" height="96" rx="22" fill="none" stroke="#3A3A3C" stroke-width="1"/><g transform="translate(414 834)" fill="none" stroke="#32D74B" stroke-width="2" stroke-linecap="round" stroke-linejoin="round"><circle cx="24" cy="24" r="18"/><g transform="translate(14.640 14.640) scale(0.780)" fill="none"><polyline points="4,11 12,5 20,11"/><path d="M6 10.5V19h12v-8.5"/><path d="M10 19v-4h4v4"/></g></g><text x="438" y="902" fill="#8E8E93" font-family="SF Pro Display, -apple-system, BlinkMacSystemFont, sans-serif" font-size="11" font-weight="500" text-anchor="middle">Shelters</text><rect x="488" y="822" width="128" height="96" rx="22" fill="none" stroke="#3A3A3C" stroke-width="1"/><g transform="translate(528 834)" fill="none" stroke="#32D74B" stroke-width="2" stroke-linecap="round" stroke-linejoin="round"><circle cx="24" cy="24" r="18"/><g transform="translate(15.360 16.060) scale(0.720)" fill="none"><circle cx="12" cy="11.5" r="1.5"/><path d="M9 9a4 4 0 0 0 0 5"/><path d="M15 9a4 4 0 0 1 0 5"/><path d="M7 6a7 7 0 0 0 0 11"/><path d="M17 6a7 7 0 0 1 0 11"/><line x1="12" y1="13.5" x2="12" y2="18.5"/><line x1="8" y1="19" x2="16" y2="19"/></g></g><text x="552" y="902" fill="#8E8E93" font-family="SF Pro Display, -apple-system, BlinkMacSystemFont, sans-serif" font-size="11" font-weight="500" text-anchor="middle">Beacons</text><rect x="602" y="822" width="128" height="96" rx="22" fill="none" stroke="#3A3A3C" stroke-width="1"/><g transform="translate(642 834)" fill="none" stroke="#64D2FF" stroke-width="2" stroke-linecap="round" stroke-linejoin="round"><circle cx="24" cy="24" r="18"/><g transform="translate(15.120 16.020) scale(0.740)" fill="none"><polygon points="8,4 16,4 18,20 6,20"/><line x1="12" y1="7" x2="12" y2="9"/><line x1="12" y1="11" x2="12" y2="13"/><line x1="12" y1="15" x2="12" y2="17"/></g></g><text x="666" y="902" fill="#8E8E93" font-family="SF Pro Display, -apple-system, BlinkMacSystemFont, sans-serif" font-size="11" font-weight="500" text-anchor="middle">Airstrips</text></svg>
